<svg version="1.1" id="Layer_1" xmlns="http://www.w3.org/2000/svg" xmlns:xlink="http://www.w3.org/1999/xlink" x="0px" y="0px"
	 width="100%" viewBox="0 0 1226 678" enable-background="new 0 0 1226 678" xml:space="preserve">
<path fill="#242526" opacity="1.000000" stroke="none"
	d="
M719.000000,679.000000
	C479.364716,679.000000 240.229416,679.000000 1.047064,679.000000
	C1.047064,453.061035 1.047064,227.122055 1.047064,1.091538
	C409.552032,1.091538 818.104065,1.091538 1226.828125,1.091538
	C1226.828125,226.999893 1226.828125,452.999939 1226.828125,679.000000
	C1057.788696,679.000000 888.644348,679.000000 719.000000,679.000000
M974.539001,542.764404
	C1007.040405,548.147400 1039.210205,546.363342 1071.083374,538.274536
	C1103.055542,530.160645 1131.567505,515.291992 1157.621948,494.724487
	C1145.651978,493.213745 1134.377441,492.166626 1123.239136,490.304474
	C1101.959229,486.746796 1081.687866,479.785858 1061.906982,470.089081
	C1060.309937,460.307129 1060.120483,450.024231 1056.850830,440.837494
	C1047.202881,413.728729 1028.109985,396.316162 999.205750,392.018555
	C989.422791,390.563934 979.119263,392.609894 968.799194,392.419678
	C966.632996,389.594299 964.466736,386.768921 962.067505,383.272949
	C958.328430,376.978210 954.508667,370.729706 950.869263,364.377838
	C945.514954,355.032928 946.294312,352.295715 955.656494,346.859741
	C960.118652,344.268799 964.719177,341.905731 969.092468,339.175781
	C972.184204,337.245880 975.215027,335.109222 977.900696,332.657074
	C989.500732,322.065918 989.017944,307.047974 976.838440,297.235870
	C974.511475,295.361237 972.022644,293.650757 969.460083,292.111694
	C959.330261,286.027863 948.886230,280.427338 939.050354,273.906006
	C930.195740,268.035217 922.609070,261.107208 922.790588,248.791183
	C923.568542,196.001495 939.601929,148.426361 970.948547,106.012077
	C975.942810,99.254517 981.446411,92.873405 987.107300,85.829575
	C984.896729,85.998260 983.389648,85.971901 981.939819,86.247032
	C973.118774,87.921074 964.173645,89.151108 955.520325,91.465546
	C893.198792,108.134308 845.182312,144.045059 812.391724,199.654694
	C786.767761,243.110382 777.096924,290.336121 783.056396,340.306702
	C785.130127,357.695557 790.370850,374.706757 793.389160,392.101654
	C782.846680,394.387115 773.176147,398.609711 764.660217,405.277557
	C737.570190,426.488617 727.764221,466.203369 741.932007,498.759430
	C753.953857,526.384399 774.803345,542.035156 805.361755,543.296448
	C822.252747,543.993591 837.464478,539.007446 850.317200,527.917297
	C852.662964,532.041809 854.009033,537.695923 857.398926,539.491455
	C861.175781,541.491943 866.811707,539.983093 871.638367,540.000610
	C872.470703,540.003662 873.302979,540.000977 874.135315,540.000977
	C879.712402,540.000977 885.289429,540.001038 891.078369,540.001038
	C891.078369,530.084595 891.078369,520.935913 891.767334,511.940277
	C894.642212,513.602478 897.485229,515.322998 900.397095,516.917725
	C923.450134,529.542847 947.774170,538.512329 974.539001,542.764404
M722.724365,279.500183
	C722.724365,222.706940 722.724365,165.913712 722.724365,108.814148
	C709.086914,108.814148 695.849976,108.814148 681.927063,108.814148
	C681.927063,134.674942 681.927063,160.289032 681.927063,186.516068
	C663.150024,169.261414 621.242188,167.371414 596.490967,187.106995
	C567.222168,210.444687 558.578735,254.153473 577.003662,287.929718
	C592.510742,316.356842 622.415466,330.472778 653.519836,323.937225
	C664.225464,321.687836 673.946594,317.240448 682.317261,309.628021
	C684.005981,313.216522 685.388367,316.403809 687.011841,319.463196
	C687.549683,320.476624 688.696899,321.873779 689.583923,321.887268
	C700.514465,322.053528 711.448364,321.995697 722.724365,321.995697
	C722.724365,307.769836 722.724365,294.135040 722.724365,279.500183
M400.025848,539.304138
	C400.025848,491.250214 400.025848,443.196289 400.025848,395.140747
	C388.130371,395.140747 376.835114,395.140747 365.411621,395.140747
	C364.076996,399.610474 362.777649,403.962097 361.326233,408.822968
	C359.121613,406.726105 357.495178,404.859192 355.564667,403.392517
	C336.345093,388.790588 314.901245,387.514832 293.082062,394.991852
	C263.633820,405.083160 245.663696,432.302582 244.756851,465.661896
	C243.593781,508.446472 275.381226,543.077881 314.483307,543.343201
	C331.945770,543.461670 348.435211,540.749451 360.227020,525.859741
	C360.447266,525.581665 361.095337,525.642334 361.535248,525.546875
	C362.857025,530.413452 364.145874,535.158752 365.443573,539.936707
	C376.987030,539.936707 388.137817,539.936707 400.025848,539.304138
M349.814850,178.626266
	C335.579895,172.591995 320.773773,171.205109 305.791504,174.460617
	C259.567169,184.504684 233.644623,233.290573 251.027817,277.426147
	C262.555634,306.694946 292.018463,327.818268 327.699249,325.237427
	C357.112793,323.109924 385.744781,299.819427 393.814636,270.254395
	C404.049286,232.758392 386.707947,196.163818 349.814850,178.626266
M718.003113,495.447571
	C723.572266,481.630798 724.499573,467.391815 722.082275,452.790100
	C715.265869,411.615112 671.998291,382.886505 631.517517,392.716888
	C592.313171,402.237335 567.928162,437.914734 573.078186,478.218658
	C578.664856,521.939209 623.233276,552.257019 665.803650,541.229614
	C690.550720,534.819092 707.459351,519.278625 718.003113,495.447571
M476.370239,285.555359
	C473.719147,284.614227 470.898163,283.989929 468.447052,282.675812
	C459.050812,277.638062 457.401306,268.786194 457.395233,259.248718
	C457.380676,236.425323 457.390503,213.601944 457.390442,190.778549
	C457.390442,186.305832 457.390381,181.833115 457.390381,177.191772
	C443.739044,177.191772 430.496246,177.191772 417.178070,177.191772
	C417.047852,177.858047 416.878540,178.318619 416.879181,178.778961
	C416.922699,209.264938 416.770294,239.753922 417.211090,270.234314
	C417.300293,276.403503 418.838776,282.848267 421.075623,288.638031
	C430.297302,312.507080 452.005524,323.097168 479.088318,321.676697
	C490.124420,321.097870 500.097015,317.062317 509.448639,310.927338
	C511.052856,313.941681 512.396423,316.787079 514.057983,319.432800
	C514.735596,320.511749 516.090637,321.872375 517.157837,321.890350
	C527.936340,322.071533 538.719055,322.000763 549.686768,322.000763
	C549.686768,273.493439 549.686768,225.443741 549.686768,177.265930
	C536.246582,177.265930 523.036804,177.265930 509.475006,177.265930
	C509.475006,179.368851 509.474976,181.177170 509.474976,182.985489
	C509.474915,208.474380 509.525421,233.963394 509.454498,259.452087
	C509.416229,273.199249 503.251648,282.004120 491.032318,284.972809
	C486.618988,286.045013 481.826508,285.556885 476.370239,285.555359
M426.325531,493.125580
	C437.512787,521.004700 457.555176,538.526306 487.491516,542.672668
	C514.268005,546.381287 536.748779,537.020569 553.743713,517.801575
	C545.504822,509.213470 537.594543,500.967957 529.657715,492.694824
	C527.810059,494.459534 525.987366,496.398773 523.965027,498.100800
	C505.830505,513.363342 481.285522,511.053070 468.973694,492.276672
	C459.746613,478.204773 460.133026,463.027435 467.048523,447.998932
	C475.498596,429.635437 493.832855,422.165741 512.360901,429.984253
	C518.208862,432.451996 523.284302,436.750397 528.916138,440.340240
	C537.750977,433.515137 546.910034,426.439545 556.063293,419.368469
	C534.236877,390.867065 493.877563,382.687439 461.762512,399.917358
	C429.105865,417.437836 413.868988,456.907928 426.325531,493.125580
M84.173111,283.441345
	C72.301933,274.015900 67.893890,261.400970 69.221626,246.743713
	C70.669716,230.757919 77.721199,217.687073 92.935303,211.305099
	C107.546654,205.175995 120.580177,210.270477 132.023056,220.251892
	C132.990692,221.095993 134.061829,221.821442 135.194580,222.685699
	C144.480820,215.526382 153.559082,208.527420 162.632935,201.531845
	C147.696457,180.502838 116.642036,167.047897 85.058067,175.324234
	C52.556736,183.841019 30.099464,212.696091 28.665825,247.512039
	C27.328562,279.987427 48.660740,310.553528 80.432152,321.686096
	C108.598434,331.555481 144.395325,321.315826 160.611938,299.293030
	C152.591843,290.937439 144.662064,282.675964 136.731216,274.413330
	C119.298851,293.165131 98.557304,293.449707 84.173111,283.441345
M224.970337,264.500000
	C224.970337,212.435181 224.970337,160.370377 224.970337,108.465965
	C211.101974,108.465965 198.014130,108.465965 184.838715,108.465965
	C184.838715,179.721634 184.838715,250.647797 184.838715,321.706787
	C198.266861,321.706787 211.490952,321.706787 224.970337,321.706787
	C224.970337,302.776123 224.970337,284.138062 224.970337,264.500000
z"/>
<path fill="#F9DE70" opacity="1.000000" stroke="none"
	d="
M794.165222,391.890442
	C790.370850,374.706757 785.130127,357.695557 783.056396,340.306702
	C777.096924,290.336121 786.767761,243.110382 812.391724,199.654694
	C845.182312,144.045059 893.198792,108.134308 955.520325,91.465546
	C964.173645,89.151108 973.118774,87.921074 981.939819,86.247032
	C983.389648,85.971901 984.896729,85.998260 987.107300,85.829575
	C981.446411,92.873405 975.942810,99.254517 970.948547,106.012077
	C939.601929,148.426361 923.568542,196.001495 922.790588,248.791183
	C922.609070,261.107208 930.195740,268.035217 939.050354,273.906006
	C948.886230,280.427338 959.330261,286.027863 969.460083,292.111694
	C972.022644,293.650757 974.511475,295.361237 976.838440,297.235870
	C989.017944,307.047974 989.500732,322.065918 977.900696,332.657074
	C975.215027,335.109222 972.184204,337.245880 969.092468,339.175781
	C964.719177,341.905731 960.118652,344.268799 955.656494,346.859741
	C946.294312,352.295715 945.514954,355.032928 950.869263,364.377838
	C954.508667,370.729706 958.328430,376.978210 961.772705,383.675049
	C960.190796,384.381165 958.911560,384.724762 957.615417,384.983276
	C935.654541,389.362427 913.570862,392.139648 891.061218,389.563782
	C890.989868,370.132294 890.809204,351.166229 891.071350,332.206329
	C891.139709,327.261322 889.510620,325.992676 884.816650,326.155853
	C875.346130,326.485138 865.851074,326.434723 856.376343,326.173523
	C852.047241,326.054169 850.630371,327.405273 850.671265,331.840363
	C850.875183,353.963165 850.764343,376.088806 850.764282,398.213470
	C850.764282,399.967926 850.764282,401.722351 850.764282,404.384399
	C848.668396,403.016876 847.435425,402.301819 846.299316,401.456543
	C839.047729,396.061371 830.856140,392.704041 821.939514,392.101044
	C812.718811,391.477539 803.426331,391.916321 794.165222,391.890442
M899.553650,293.060577
	C907.795349,285.083496 910.927917,275.407074 908.971375,264.143921
	C906.268799,248.586395 892.265564,237.843018 876.862061,238.286362
	C857.502380,238.843597 845.101807,255.346329 845.849365,271.188995
	C846.421509,283.314362 853.796387,295.172852 865.250488,299.564453
	C877.561829,304.284698 889.057556,302.767578 899.553650,293.060577
z"/>
<path fill="#FDFDFD" opacity="1.000000" stroke="none"
	d="
M722.724365,280.000183
	C722.724365,294.135040 722.724365,307.769836 722.724365,321.995697
	C711.448364,321.995697 700.514465,322.053528 689.583923,321.887268
	C688.696899,321.873779 687.549683,320.476624 687.011841,319.463196
	C685.388367,316.403809 684.005981,313.216522 682.317261,309.628021
	C673.946594,317.240448 664.225464,321.687836 653.519836,323.937225
	C622.415466,330.472778 592.510742,316.356842 577.003662,287.929718
	C558.578735,254.153473 567.222168,210.444687 596.490967,187.106995
	C621.242188,167.371414 663.150024,169.261414 681.927063,186.516068
	C681.927063,160.289032 681.927063,134.674942 681.927063,108.814148
	C695.849976,108.814148 709.086914,108.814148 722.724365,108.814148
	C722.724365,165.913712 722.724365,222.706940 722.724365,280.000183
M682.100403,246.582489
	C682.075562,245.751129 682.067322,244.918884 682.023560,244.088516
	C680.490845,214.977463 651.135864,199.266785 625.970032,214.086868
	C609.509155,223.780624 602.160950,245.091766 609.296631,264.200806
	C614.139160,277.168793 623.518433,286.166779 637.255676,288.689667
	C651.668213,291.336609 664.762329,287.653381 674.388306,275.777985
	C681.017761,267.599335 682.249756,257.698151 682.100403,246.582489
z"/>
<path fill="#FEFEFE" opacity="1.000000" stroke="none"
	d="
M793.777222,391.996033
	C803.426331,391.916321 812.718811,391.477539 821.939514,392.101044
	C830.856140,392.704041 839.047729,396.061371 846.299316,401.456543
	C847.435425,402.301819 848.668396,403.016876 850.764282,404.384399
	C850.764282,401.722351 850.764282,399.967926 850.764282,398.213470
	C850.764343,376.088806 850.875183,353.963165 850.671265,331.840363
	C850.630371,327.405273 852.047241,326.054169 856.376343,326.173523
	C865.851074,326.434723 875.346130,326.485138 884.816650,326.155853
	C889.510620,325.992676 891.139709,327.261322 891.071350,332.206329
	C890.809204,351.166229 890.989868,370.132294 890.994995,390.026581
	C891.047607,397.920837 891.110535,404.884583 891.098450,412.321289
	C891.041748,445.791901 891.060059,478.789551 891.078369,511.787170
	C891.078369,520.935913 891.078369,530.084595 891.078369,540.001038
	C885.289429,540.001038 879.712402,540.000977 874.135315,540.000977
	C873.302979,540.000977 872.470703,540.003662 871.638367,540.000610
	C866.811707,539.983093 861.175781,541.491943 857.398926,539.491455
	C854.009033,537.695923 852.662964,532.041809 850.317200,527.917297
	C837.464478,539.007446 822.252747,543.993591 805.361755,543.296448
	C774.803345,542.035156 753.953857,526.384399 741.932007,498.759430
	C727.764221,466.203369 737.570190,426.488617 764.660217,405.277557
	C773.176147,398.609711 782.846680,394.387115 793.777222,391.996033
M809.881226,427.055054
	C805.880493,428.041260 801.593506,428.412445 797.927551,430.118195
	C780.226318,438.354370 771.188049,458.763550 776.102051,477.755371
	C780.564087,495.000305 796.809448,509.978577 818.719971,507.140289
	C834.256714,505.127686 847.200439,493.354523 849.566956,477.435211
	C849.834167,474.465698 850.228577,471.501343 850.348511,468.525909
	C851.403137,442.355957 836.816162,425.811768 809.881226,427.055054
z"/>
<path fill="#FEFEFE" opacity="1.000000" stroke="none"
	d="
M399.657227,539.620422
	C388.137817,539.936707 376.987030,539.936707 365.443573,539.936707
	C364.145874,535.158752 362.857025,530.413452 361.535248,525.546875
	C361.095337,525.642334 360.447266,525.581665 360.227020,525.859741
	C348.435211,540.749451 331.945770,543.461670 314.483307,543.343201
	C275.381226,543.077881 243.593781,508.446472 244.756851,465.661896
	C245.663696,432.302582 263.633820,405.083160 293.082062,394.991852
	C314.901245,387.514832 336.345093,388.790588 355.564667,403.392517
	C357.495178,404.859192 359.121613,406.726105 361.326233,408.822968
	C362.777649,403.962097 364.076996,399.610474 365.411621,395.140747
	C376.835114,395.140747 388.130371,395.140747 400.025848,395.140747
	C400.025848,443.196289 400.025848,491.250214 399.657227,539.620422
M322.497772,426.925873
	C320.013153,427.111053 317.472778,427.025482 315.052734,427.524109
	C294.922546,431.671448 281.814850,450.533661 284.251282,472.416748
	C285.933105,487.522522 294.090210,498.634583 307.956177,504.550873
	C321.125885,510.170013 334.035553,508.137238 345.756378,499.802765
	C356.087006,492.456848 359.098999,481.534149 359.700623,469.724030
	C360.880005,446.571594 349.620636,427.477081 322.497772,426.925873
z"/>
<path fill="#FFFFFE" opacity="1.000000" stroke="none"
	d="
M969.053650,393.056122
	C979.119263,392.609894 989.422791,390.563934 999.205750,392.018555
	C1028.109985,396.316162 1047.202881,413.728729 1056.850830,440.837494
	C1060.120483,450.024231 1060.309937,460.307129 1061.881470,470.947144
	C1061.521362,474.444550 1061.063721,477.075317 1060.878784,479.725098
	C1060.534180,484.662048 1058.554443,486.466949 1053.102295,486.404388
	C1022.975037,486.058624 992.841675,486.233429 962.710388,486.252686
	C960.854858,486.253876 958.999451,486.451233 956.050720,486.619843
	C965.683899,500.521332 977.352905,508.814911 993.231323,509.911987
	C1006.656433,510.839539 1019.782471,508.720001 1032.401245,504.003998
	C1035.393677,502.885559 1036.805664,503.532684 1038.180664,506.339783
	C1041.032959,512.163025 1044.022461,517.947327 1047.405640,523.472046
	C1049.555542,526.982910 1048.671875,528.842896 1045.351562,530.458252
	C1041.766724,532.202271 1038.351929,534.330322 1034.684448,535.863770
	C1015.035583,544.079224 994.715759,545.025085 973.635620,541.017639
	C968.141296,538.975403 962.891479,537.311707 957.889465,535.090149
	C929.840210,522.632507 912.334167,494.995026 913.115601,464.319214
	C913.521851,448.371033 919.242737,434.178162 928.479980,420.978394
	C930.095520,419.137634 931.360107,417.419556 932.786438,415.848267
	C942.747742,404.875183 955.250854,397.927094 969.053650,393.056122
M966.954041,435.414917
	C961.248718,440.679291 956.874207,446.736053 955.136475,454.800690
	C977.244629,454.800690 998.957153,454.800690 1021.255981,454.800690
	C1018.704590,442.820923 1011.087158,434.892334 1001.381104,429.872345
	C989.495972,423.725342 977.800049,426.617249 966.954041,435.414917
z"/>
<path fill="#FEFEFE" opacity="1.000000" stroke="none"
	d="
M350.171631,178.767914
	C386.707947,196.163818 404.049286,232.758392 393.814636,270.254395
	C385.744781,299.819427 357.112793,323.109924 327.699249,325.237427
	C292.018463,327.818268 262.555634,306.694946 251.027817,277.426147
	C233.644623,233.290573 259.567169,184.504684 305.791504,174.460617
	C320.773773,171.205109 335.579895,172.591995 350.171631,178.767914
M330.764282,210.398529
	C322.039429,207.722137 313.660522,208.375031 305.845520,213.268311
	C288.420715,224.178619 280.877319,248.885681 289.115479,267.811829
	C297.047852,286.035522 315.800385,294.805237 333.321869,287.623352
	C348.167664,281.538208 355.212189,269.446381 356.064453,253.659134
	C357.121155,234.084198 347.742157,217.804825 330.764282,210.398529
z"/>
<path fill="#FEFEFE" opacity="1.000000" stroke="none"
	d="
M717.894775,495.816193
	C707.459351,519.278625 690.550720,534.819092 665.803650,541.229614
	C623.233276,552.257019 578.664856,521.939209 573.078186,478.218658
	C567.928162,437.914734 592.313171,402.237335 631.517517,392.716888
	C671.998291,382.886505 715.265869,411.615112 722.082275,452.790100
	C724.499573,467.391815 723.572266,481.630798 717.894775,495.816193
M652.885071,427.186249
	C645.570679,426.320221 638.687622,427.351044 632.346069,431.414337
	C617.134705,441.160797 609.450195,461.013184 613.780273,478.916229
	C616.840393,491.568573 623.759277,501.086487 636.012390,505.731018
	C655.077637,512.957764 675.526062,502.040527 681.048645,482.182770
	C687.892273,457.575348 675.789062,433.292389 652.885071,427.186249
z"/>
<path fill="#FDFDFD" opacity="1.000000" stroke="none"
	d="
M476.788635,285.668060
	C481.826508,285.556885 486.618988,286.045013 491.032318,284.972809
	C503.251648,282.004120 509.416229,273.199249 509.454498,259.452087
	C509.525421,233.963394 509.474915,208.474380 509.474976,182.985489
	C509.474976,181.177170 509.475006,179.368851 509.475006,177.265930
	C523.036804,177.265930 536.246582,177.265930 549.686768,177.265930
	C549.686768,225.443741 549.686768,273.493439 549.686768,322.000763
	C538.719055,322.000763 527.936340,322.071533 517.157837,321.890350
	C516.090637,321.872375 514.735596,320.511749 514.057983,319.432800
	C512.396423,316.787079 511.052856,313.941681 509.448639,310.927338
	C500.097015,317.062317 490.124420,321.097870 479.088318,321.676697
	C452.005524,323.097168 430.297302,312.507080 421.075623,288.638031
	C418.838776,282.848267 417.300293,276.403503 417.211090,270.234314
	C416.770294,239.753922 416.922699,209.264938 416.879181,178.778961
	C416.878540,178.318619 417.047852,177.858047 417.178070,177.191772
	C430.496246,177.191772 443.739044,177.191772 457.390381,177.191772
	C457.390381,181.833115 457.390442,186.305832 457.390442,190.778549
	C457.390503,213.601944 457.380676,236.425323 457.395233,259.248718
	C457.401306,268.786194 459.050812,277.638062 468.447052,282.675812
	C470.898163,283.989929 473.719147,284.614227 476.788635,285.668060
z"/>
<path fill="#FDFDFD" opacity="1.000000" stroke="none"
	d="
M426.196472,492.754272
	C413.868988,456.907928 429.105865,417.437836 461.762512,399.917358
	C493.877563,382.687439 534.236877,390.867065 556.063293,419.368469
	C546.910034,426.439545 537.750977,433.515137 528.916138,440.340240
	C523.284302,436.750397 518.208862,432.451996 512.360901,429.984253
	C493.832855,422.165741 475.498596,429.635437 467.048523,447.998932
	C460.133026,463.027435 459.746613,478.204773 468.973694,492.276672
	C481.285522,511.053070 505.830505,513.363342 523.965027,498.100800
	C525.987366,496.398773 527.810059,494.459534 529.657715,492.694824
	C537.594543,500.967957 545.504822,509.213470 553.743713,517.801575
	C536.748779,537.020569 514.268005,546.381287 487.491516,542.672668
	C457.555176,538.526306 437.512787,521.004700 426.196472,492.754272
z"/>
<path fill="#FEFEFE" opacity="1.000000" stroke="none"
	d="
M84.466461,283.656738
	C98.557304,293.449707 119.298851,293.165131 136.731216,274.413330
	C144.662064,282.675964 152.591843,290.937439 160.611938,299.293030
	C144.395325,321.315826 108.598434,331.555481 80.432152,321.686096
	C48.660740,310.553528 27.328562,279.987427 28.665825,247.512039
	C30.099464,212.696091 52.556736,183.841019 85.058067,175.324234
	C116.642036,167.047897 147.696457,180.502838 162.632935,201.531845
	C153.559082,208.527420 144.480820,215.526382 135.194580,222.685699
	C134.061829,221.821442 132.990692,221.095993 132.023056,220.251892
	C120.580177,210.270477 107.546654,205.175995 92.935303,211.305099
	C77.721199,217.687073 70.669716,230.757919 69.221626,246.743713
	C67.893890,261.400970 72.301933,274.015900 84.466461,283.656738
z"/>
<path fill="#FEFEFE" opacity="1.000000" stroke="none"
	d="
M224.970337,265.000000
	C224.970337,284.138062 224.970337,302.776123 224.970337,321.706787
	C211.490952,321.706787 198.266861,321.706787 184.838715,321.706787
	C184.838715,250.647797 184.838715,179.721634 184.838715,108.465965
	C198.014130,108.465965 211.101974,108.465965 224.970337,108.465965
	C224.970337,160.370377 224.970337,212.435181 224.970337,265.000000
z"/>
<path fill="#F9DE71" opacity="1.000000" stroke="none"
	d="
M973.994629,541.138550
	C994.715759,545.025085 1015.035583,544.079224 1034.684448,535.863770
	C1038.351929,534.330322 1041.766724,532.202271 1045.351562,530.458252
	C1048.671875,528.842896 1049.555542,526.982910 1047.405640,523.472046
	C1044.022461,517.947327 1041.032959,512.163025 1038.180664,506.339783
	C1036.805664,503.532684 1035.393677,502.885559 1032.401245,504.003998
	C1019.782471,508.720001 1006.656433,510.839539 993.231323,509.911987
	C977.352905,508.814911 965.683899,500.521332 956.050720,486.619843
	C958.999451,486.451233 960.854858,486.253876 962.710388,486.252686
	C992.841675,486.233429 1022.975037,486.058624 1053.102295,486.404388
	C1058.554443,486.466949 1060.534180,484.662048 1060.878784,479.725098
	C1061.063721,477.075317 1061.521362,474.444550 1061.939575,471.402649
	C1081.687866,479.785858 1101.959229,486.746796 1123.239136,490.304474
	C1134.377441,492.166626 1145.651978,493.213745 1157.621948,494.724487
	C1131.567505,515.291992 1103.055542,530.160645 1071.083374,538.274536
	C1039.210205,546.363342 1007.040405,548.147400 974.238037,542.261169
	C973.956299,541.551453 973.975464,541.345032 973.994629,541.138550
z"/>
<path fill="#F9DE70" opacity="1.000000" stroke="none"
	d="
M973.635620,541.017639
	C973.975464,541.345032 973.956299,541.551453 973.901245,542.066895
	C947.774170,538.512329 923.450134,529.542847 900.397095,516.917725
	C897.485229,515.322998 894.642212,513.602478 891.422852,511.863708
	C891.060059,478.789551 891.041748,445.791901 891.480835,412.366760
	C904.026733,415.015808 916.115295,418.092407 928.203796,421.169006
	C919.242737,434.178162 913.521851,448.371033 913.115601,464.319214
	C912.334167,494.995026 929.840210,522.632507 957.889465,535.090149
	C962.891479,537.311707 968.141296,538.975403 973.635620,541.017639
z"/>
<path fill="#F0975C" opacity="1.000000" stroke="none"
	d="
M928.479980,420.978394
	C916.115295,418.092407 904.026733,415.015808 891.555847,411.893738
	C891.110535,404.884583 891.047607,397.920837 891.050903,390.494324
	C913.570862,392.139648 935.654541,389.362427 957.615417,384.983276
	C958.911560,384.724762 960.190796,384.381165 961.889221,384.010345
	C964.466736,386.768921 966.632996,389.594299 968.926392,392.737915
	C955.250854,397.927094 942.747742,404.875183 932.786438,415.848267
	C931.360107,417.419556 930.095520,419.137634 928.479980,420.978394
z"/>
<path fill="#F0965B" opacity="1.000000" stroke="none"
	d="
M899.298950,293.315125
	C889.057556,302.767578 877.561829,304.284698 865.250488,299.564453
	C853.796387,295.172852 846.421509,283.314362 845.849365,271.188995
	C845.101807,255.346329 857.502380,238.843597 876.862061,238.286362
	C892.265564,237.843018 906.268799,248.586395 908.971375,264.143921
	C910.927917,275.407074 907.795349,285.083496 899.298950,293.315125
z"/>
<path fill="#1C1C1E" opacity="1.000000" stroke="none"
	d="
M682.112610,247.062378
	C682.249756,257.698151 681.017761,267.599335 674.388306,275.777985
	C664.762329,287.653381 651.668213,291.336609 637.255676,288.689667
	C623.518433,286.166779 614.139160,277.168793 609.296631,264.200806
	C602.160950,245.091766 609.509155,223.780624 625.970032,214.086868
	C651.135864,199.266785 680.490845,214.977463 682.023560,244.088516
	C682.067322,244.918884 682.075562,245.751129 682.112610,247.062378
z"/>
<path fill="#1C1C1E" opacity="1.000000" stroke="none"
	d="
M849.088196,478.100403
	C847.200439,493.354523 834.256714,505.127686 818.719971,507.140289
	C796.809448,509.978577 780.564087,495.000305 776.102051,477.755371
	C771.188049,458.763550 780.226318,438.354370 797.927551,430.118195
	C801.593506,428.412445 805.880493,428.041260 810.391296,427.439636
	C821.305725,446.348541 833.627686,463.416382 849.088196,478.100403
z"/>
<path fill="#F8DD70" opacity="1.000000" stroke="none"
	d="
M849.327576,477.767822
	C833.627686,463.416382 821.305725,446.348541 810.790344,427.482788
	C836.816162,425.811768 851.403137,442.355957 850.348511,468.525909
	C850.228577,471.501343 849.834167,474.465698 849.327576,477.767822
z"/>
<path fill="#1C1C1E" opacity="1.000000" stroke="none"
	d="
M322.963531,426.945435
	C349.620636,427.477081 360.880005,446.571594 359.700623,469.724030
	C359.098999,481.534149 356.087006,492.456848 345.756378,499.802765
	C334.035553,508.137238 321.125885,510.170013 307.956177,504.550873
	C294.090210,498.634583 285.933105,487.522522 284.251282,472.416748
	C281.814850,450.533661 294.922546,431.671448 315.052734,427.524109
	C317.472778,427.025482 320.013153,427.111053 322.963531,426.945435
z"/>
<path fill="#FADF71" opacity="1.000000" stroke="none"
	d="
M967.214050,435.170471
	C977.800049,426.617249 989.495972,423.725342 1001.381104,429.872345
	C1011.087158,434.892334 1018.704590,442.820923 1021.255981,454.800690
	C998.957153,454.800690 977.244629,454.800690 955.136475,454.800690
	C956.874207,446.736053 961.248718,440.679291 967.214050,435.170471
z"/>
<path fill="#1C1C1E" opacity="1.000000" stroke="none"
	d="
M331.125000,210.567551
	C347.742157,217.804825 357.121155,234.084198 356.064453,253.659134
	C355.212189,269.446381 348.167664,281.538208 333.321869,287.623352
	C315.800385,294.805237 297.047852,286.035522 289.115479,267.811829
	C280.877319,248.885681 288.420715,224.178619 305.845520,213.268311
	C313.660522,208.375031 322.039429,207.722137 331.125000,210.567551
z"/>
<path fill="#1C1C1E" opacity="1.000000" stroke="none"
	d="
M653.306152,427.276611
	C675.789062,433.292389 687.892273,457.575348 681.048645,482.182770
	C675.526062,502.040527 655.077637,512.957764 636.012390,505.731018
	C623.759277,501.086487 616.840393,491.568573 613.780273,478.916229
	C609.450195,461.013184 617.134705,441.160797 632.346069,431.414337
	C638.687622,427.351044 645.570679,426.320221 653.306152,427.276611
z"/>
</svg>
