<svg version="1.1" id="Layer_1" xmlns="http://www.w3.org/2000/svg" xmlns:xlink="http://www.w3.org/1999/xlink" x="0px" y="0px"
	 width="100%" viewBox="0 0 1024 560" enable-background="new 0 0 1024 560" xml:space="preserve">
<path fill="#000000" opacity="1.000000" stroke="none" 
	d="
M602.450317,266.739655 
	C594.045471,267.012207 586.055847,267.026886 578.069824,267.202850 
	C575.296143,267.263977 573.830505,265.930878 572.735474,263.588226 
	C571.843506,261.680145 571.489258,259.410614 569.281921,257.855347 
	C554.479492,268.850250 537.947815,272.488586 519.875977,268.251434 
	C506.574738,265.132812 495.890533,257.921570 487.452026,247.186829 
	C468.640778,223.256912 469.362915,186.586548 488.690002,162.799698 
	C503.882782,144.101105 538.387207,132.146988 569.144165,152.032349 
	C569.938293,137.005341 569.602539,122.241051 569.357971,107.478226 
	C569.278015,102.651611 569.222656,97.824249 569.092529,92.998947 
	C569.006165,89.798897 570.155823,87.968063 573.680847,88.000282 
	C582.339600,88.079422 590.999634,88.042755 599.659119,88.032333 
	C602.702454,88.028671 604.335144,89.324471 604.191895,92.549522 
	C604.103333,94.543411 604.207214,96.545395 604.206848,98.543739 
	C604.197083,152.168610 604.195679,205.793503 604.138428,259.418335 
	C604.135864,261.823517 604.916626,264.465424 602.450317,266.739655 
M508.540924,214.899460 
	C508.830719,215.854340 509.086243,216.821213 509.415466,217.762283 
	C514.278748,231.663620 526.687866,239.593002 542.099304,238.658203 
	C554.834106,237.885788 565.540710,228.774231 568.212280,215.656357 
	C569.708862,208.307495 569.727478,200.749771 567.757751,193.376740 
	C565.716736,185.736862 561.291382,179.744064 554.076721,176.479675 
	C541.974915,171.004059 529.857666,170.970627 519.385193,179.892105 
	C508.932892,188.796524 505.335785,200.537292 508.540924,214.899460 
z"/>
<path fill="#000000" opacity="1.000000" stroke="none" 
	d="
M744.222900,278.082367 
	C744.219788,332.897003 744.217590,387.224426 744.215149,441.551849 
	C744.214844,448.320526 744.214294,448.330231 737.228271,448.346375 
	C731.562195,448.359497 725.879822,448.080719 720.235413,448.429779 
	C715.912903,448.697083 713.252686,447.304993 712.007202,443.111938 
	C711.593567,441.719055 711.039612,440.230377 708.988281,439.504089 
	C694.966431,449.964386 679.013428,453.722778 661.606262,450.181549 
	C648.611633,447.537994 637.859985,440.896790 629.239807,430.757751 
	C610.143555,408.296631 608.497070,372.680267 625.407654,348.845245 
	C634.937500,335.413239 647.554077,326.606903 663.894348,324.311371 
	C679.490784,322.120300 694.797241,323.302887 708.594116,333.321594 
	C709.901367,326.458588 709.388428,320.282837 709.486145,314.189667 
	C709.697144,301.032806 709.468445,287.866455 709.249023,274.706787 
	C709.188843,271.096588 710.399292,269.576141 714.141357,269.669983 
	C721.469299,269.853638 728.805115,269.722443 736.137634,269.728302 
	C744.154724,269.734711 744.154724,269.738007 744.222900,278.082367 
M708.812073,393.389618 
	C709.300659,389.250153 709.291382,385.137604 708.906677,380.961517 
	C706.896912,359.143707 688.647705,352.280762 673.515930,354.899353 
	C653.640625,358.338776 642.606323,379.237000 649.460083,399.206146 
	C653.922607,412.208374 667.105286,421.388763 679.629028,420.215729 
	C697.123291,418.577179 706.516418,410.206268 708.812073,393.389618 
z"/>
<path fill="#000000" opacity="1.000000" stroke="none" 
	d="
M264.046356,451.359863 
	C234.261856,450.779236 209.147964,427.360199 205.716537,397.681580 
	C203.067871,374.773376 208.649506,354.720886 225.716522,338.603760 
	C244.735245,320.643463 278.184570,318.084625 297.231049,332.979736 
	C298.793640,334.201721 300.240295,335.571899 301.698334,336.836365 
	C302.658356,336.824921 302.784149,336.078491 303.009979,335.489288 
	C306.379303,326.698029 306.375641,326.696411 315.726044,326.694946 
	C320.392181,326.694214 325.074982,326.939148 329.719666,326.623383 
	C334.102936,326.325409 335.458160,327.892029 335.432678,332.296875 
	C335.268860,360.626038 335.363007,388.956696 335.366119,417.286865 
	C335.367065,426.119202 335.231415,434.953705 335.396820,443.782745 
	C335.462555,447.289124 334.149231,448.487061 330.723450,448.394775 
	C324.228943,448.219818 317.712402,448.090729 311.231903,448.440613 
	C306.863525,448.676453 304.779694,447.066101 304.111420,442.844269 
	C303.815155,440.972473 303.745026,438.852844 301.820160,437.090607 
	C291.983856,448.556122 278.819458,451.472504 264.046356,451.359863 
M241.426086,400.986816 
	C251.287018,422.991516 276.310242,424.655182 289.956635,413.572296 
	C300.991486,404.610321 301.803711,392.283356 300.113678,379.399323 
	C296.770599,353.913605 268.515045,349.564545 254.089218,358.975861 
	C240.715179,367.700958 235.433075,383.830688 241.426086,400.986816 
z"/>
<path fill="#000000" opacity="1.000000" stroke="none" 
	d="
M772.789490,350.868866 
	C783.042542,337.113525 795.895325,327.816193 812.602417,324.679688 
	C845.814270,318.444580 876.513428,338.606293 884.324585,371.565613 
	C886.419495,380.404999 886.899048,389.243958 885.505920,398.305817 
	C884.775574,403.056732 882.645264,404.238708 878.232300,404.210083 
	C854.233337,404.054352 830.232910,404.115662 806.232971,404.137634 
	C804.282837,404.139435 802.253723,403.686371 799.609070,405.130554 
	C804.218750,411.829376 810.195374,416.488831 817.364258,419.708588 
	C826.960388,424.018433 836.913086,423.037262 846.818542,421.197296 
	C851.553101,420.317841 856.247925,419.092377 860.844055,417.651337 
	C863.519897,416.812408 865.194336,417.052795 866.538574,419.689697 
	C869.110718,424.735046 871.815063,429.716949 874.606262,434.644958 
	C875.942993,437.005096 875.619995,438.564270 873.259277,439.993561 
	C838.286316,461.167511 786.705261,453.599426 767.599121,413.435150 
	C757.388428,391.970642 760.046387,371.050537 772.789490,350.868866 
M833.498657,376.718628 
	C839.350708,376.718628 845.202759,376.718628 851.299438,376.718628 
	C847.545166,362.825928 835.879517,353.740234 823.714661,354.366241 
	C811.982727,354.969971 800.041260,365.153625 798.237366,376.717865 
	C809.722778,376.717865 821.110962,376.717865 833.498657,376.718628 
z"/>
<path fill="#000000" opacity="1.000000" stroke="none" 
	d="
M310.034088,156.926666 
	C346.797699,190.538986 337.090149,246.868378 291.585663,265.825043 
	C261.444824,278.381378 224.222977,262.581940 211.222183,231.713409 
	C195.419113,194.191284 215.526718,153.300858 254.991486,143.536224 
	C275.291138,138.513535 293.524475,143.890045 310.034088,156.926666 
M297.713440,206.549454 
	C297.844299,198.442871 295.323120,191.170425 290.624786,184.651199 
	C280.101044,170.048889 261.360535,169.070068 249.464310,182.449188 
	C239.759506,193.363708 237.675522,211.622299 244.665115,224.497131 
	C252.563019,239.045074 270.962585,243.785431 284.490356,234.493835 
	C293.871368,228.050461 297.795776,218.672562 297.713440,206.549454 
z"/>
<path fill="#000000" opacity="1.000000" stroke="none" 
	d="
M604.368225,384.474182 
	C606.188843,414.352142 585.375305,443.721741 553.271179,450.304108 
	C519.523804,457.223480 485.256927,433.824219 478.941315,399.616302 
	C472.985596,367.357788 490.776276,336.211334 521.944092,326.439301 
	C561.273132,314.108551 596.384399,340.065674 603.332642,374.648804 
	C603.955322,377.748047 604.544067,380.854034 604.368225,384.474182 
M568.534241,378.045532 
	C567.272278,373.492615 565.236755,369.273041 562.258301,365.648651 
	C555.622375,357.573456 547.406189,352.555817 536.555481,354.973389 
	C514.196289,359.955048 504.611877,391.415771 519.566833,410.207489 
	C529.536133,422.734467 547.582214,424.427429 559.451782,413.705170 
	C570.007874,404.169434 571.331238,391.987579 568.534241,378.045532 
z"/>
<path fill="#000000" opacity="1.000000" stroke="none" 
	d="
M348.591309,208.999649 
	C348.590057,187.726288 348.590057,166.952835 348.590057,145.543961 
	C359.604645,145.543961 370.053986,145.490128 380.502228,145.574966 
	C383.877502,145.602371 383.223877,148.382828 383.234406,150.402344 
	C383.296082,162.226364 383.261780,174.050842 383.270905,185.875168 
	C383.279083,196.533630 383.196930,207.193558 383.347687,217.850113 
	C383.490784,227.966873 390.314209,235.000504 400.450165,235.804489 
	C413.188019,236.814865 422.981567,230.875137 424.744202,220.900345 
	C425.291290,217.804398 425.576080,214.622116 425.587402,211.477951 
	C425.660461,191.160309 425.696625,170.841812 425.559753,150.524841 
	C425.534302,146.752518 426.378632,145.237366 430.571289,145.437897 
	C438.880096,145.835281 447.221222,145.687775 455.545837,145.559616 
	C458.916473,145.507721 460.321259,146.654068 460.314026,150.155289 
	C460.236542,187.626541 460.231567,225.098068 460.289825,262.569366 
	C460.295258,266.060059 458.845093,267.295441 455.494049,267.227051 
	C449.334686,267.101349 443.155579,266.929504 437.013947,267.283722 
	C432.440552,267.547455 429.273743,266.351837 427.713867,261.809845 
	C427.356049,260.768036 426.492188,259.900024 425.570953,258.515900 
	C419.751923,261.570984 413.993073,264.469849 407.624878,265.822235 
	C386.849060,270.234406 360.849792,262.883606 351.629333,238.600952 
	C348.041473,229.152145 348.646942,219.299316 348.591309,208.999649 
z"/>
<path fill="#000000" opacity="1.000000" stroke="none" 
	d="
M59.768944,206.301163 
	C59.991837,218.739258 63.919292,228.954041 74.668869,235.434036 
	C86.064507,242.303436 100.993401,240.219727 111.340332,230.003540 
	C114.862885,226.525497 116.954163,226.666092 120.103844,230.156540 
	C124.338196,234.849014 128.887589,239.287949 133.586685,243.519272 
	C136.625320,246.255432 136.190155,248.305069 133.572403,250.893936 
	C123.558472,260.797333 111.797676,267.305878 97.766014,269.231628 
	C59.922119,274.425415 31.671646,247.849670 26.149281,217.312866 
	C21.184042,189.856812 34.711361,161.453964 60.382427,148.542297 
	C85.206566,136.056595 115.778717,141.458984 134.666138,161.759003 
	C137.703094,165.023087 137.765305,166.915710 134.010208,169.519714 
	C128.543610,173.310562 123.301620,177.455490 118.201851,181.733185 
	C115.415726,184.070190 113.473114,184.363220 110.570625,181.717377 
	C105.049629,176.684509 98.543381,173.810867 90.848206,173.097122 
	C75.109428,171.637344 62.580250,185.487350 60.307648,201.416550 
	C60.096100,202.899323 59.987411,204.396805 59.768944,206.301163 
z"/>
<path fill="#000000" opacity="1.000000" stroke="none" 
	d="
M422.737793,323.697266 
	C440.307251,325.906036 454.265900,333.627045 465.734344,347.594666 
	C457.895172,353.563416 450.562439,359.229645 443.127075,364.757812 
	C440.866577,366.438477 439.466370,364.234009 438.023315,363.023773 
	C430.393585,356.625153 421.721802,352.990509 411.757904,354.896637 
	C398.538788,357.425537 388.514221,369.970612 387.371094,384.355438 
	C386.529938,394.940186 388.695435,404.643433 396.279633,412.469574 
	C407.401794,423.946442 426.482544,423.547180 438.959534,411.360321 
	C442.297760,408.099731 444.226105,408.068878 447.280151,411.435669 
	C451.748688,416.361908 456.580353,420.974274 461.446259,425.517975 
	C463.874695,427.785583 463.683472,429.359467 461.425140,431.638062 
	C443.686737,449.535370 422.405823,455.900269 398.376190,448.773773 
	C373.841675,441.497559 358.373840,424.366150 353.811890,399.095917 
	C347.227356,362.621643 369.602325,331.056976 405.827850,324.169037 
	C411.276337,323.132996 416.787628,323.809143 422.737793,323.697266 
z"/>
<path fill="#000000" opacity="1.000000" stroke="none" 
	d="
M189.356201,152.000076 
	C189.357605,188.137543 189.358856,223.774994 189.358353,259.412445 
	C189.358231,267.188446 189.355331,267.196320 181.359055,267.199097 
	C174.198257,267.201599 167.035873,267.091187 159.877365,267.214813 
	C156.326096,267.276093 154.783707,266.006927 154.788223,262.276093 
	C154.856339,205.989014 154.857208,149.701813 154.797943,93.414703 
	C154.793808,89.496269 155.965729,87.630280 160.246002,87.762886 
	C168.231857,88.010307 176.233490,87.964981 184.222961,87.788345 
	C188.105576,87.702499 189.443863,89.145966 189.415161,93.048500 
	C189.271744,112.531448 189.353119,132.016052 189.356201,152.000076 
z"/>
</svg>